# xmcd
#
# Track frame offsets: 
#        151
#        19858
#        38398
#        55194
#        74142
#        94756
#        115922
#        135084
#        155440
#        174328
#        192098
#        208634
#        222833
#        245309
#        264816
#        282265
#        307393
#        330143
#
# Disc length: 4621 seconds
#
# Revision: 0
# Processed by: cddbd v1.5.2PL0 Copyright (c) Steve Scherf et al.
# Submitted via: ExactAudioCopy v0.99pb4
#
DISCID=f3120b12
DTITLE=Инфинити - Где ты
DYEAR=2008
DGENRE=Dance
TTITLE0=Где ты (Original feat D.I.P. Project)
TTITLE1=Останься до рассвета
TTITLE2=Я не боюсь
TTITLE3=Я чужая (версия 2008)
TTITLE4=Нонстоп (80-е)
TTITLE5=Немая слеза
TTITLE6=Движение воды
TTITLE7=Стереолюбовь
TTITLE8=Моя история
TTITLE9=Бесконечно
TTITLE10=Направляй меня
TTITLE11=Мария
TTITLE12=Где ты (Dj Нил latino mix)
TTITLE13=Останься до рассвета (Dj Alex and DJ Felix Glamour remix)
TTITLE14=Нонстоп (BeMax remix)
TTITLE15=Я не боюсь (Dj Felix remix)
TTITLE16=Останься до рассвета (Размер Project remix)
TTITLE17=Где ты (Stuff remix)
EXTD=
EXTT0=
EXTT1=
EXTT2=
EXTT3=
EXTT4=
EXTT5=
EXTT6=
EXTT7=
EXTT8=
EXTT9=
EXTT10=
EXTT11=
EXTT12=
EXTT13=
EXTT14=
EXTT15=
EXTT16=
EXTT17=
PLAYORDER=
